<svg width="88" height="38" viewBox="0 0 88 38" fill="none" xmlns="http://www.w3.org/2000/svg">
<path d="M18.8939 23.224H34.2539V23.416H31.8539V29.56C31.0699 30.376 30.2379 31.248 29.3579 32.176C28.4939 33.088 27.5099 33.952 26.4059 34.768C25.3019 35.568 24.0219 36.224 22.5659 36.736C21.1099 37.232 19.4059 37.48 17.4539 37.48C13.8859 37.48 10.8299 36.72 8.28588 35.2C5.74188 33.664 3.78988 31.512 2.42988 28.744C1.08588 25.976 0.413875 22.728 0.413875 19C0.413875 16.2 0.877875 13.672 1.80588 11.416C2.73388 9.144 4.01388 7.2 5.64588 5.584C7.27788 3.952 9.16588 2.704 11.3099 1.84C13.4539 0.959998 15.7419 0.519998 18.1739 0.519998C19.5819 0.519998 20.9179 0.767998 22.1819 1.264C23.4459 1.76 24.5899 2.44 25.6139 3.304L30.5099 0.999997H30.6779V11.56H30.4859C30.2459 10.264 29.7739 8.984 29.0699 7.72C28.3659 6.456 27.4859 5.312 26.4299 4.288C25.3899 3.248 24.2139 2.424 22.9019 1.816C21.5899 1.192 20.2139 0.879997 18.7739 0.879997C16.9979 0.879997 15.4699 1.408 14.1899 2.464C12.9259 3.504 11.8939 4.904 11.0939 6.664C10.3099 8.424 9.73388 10.376 9.36588 12.52C8.99788 14.648 8.81388 16.808 8.81388 19C8.81388 21.176 8.94188 23.352 9.19788 25.528C9.45388 27.688 9.89388 29.656 10.5179 31.432C11.1579 33.208 12.0379 34.632 13.1579 35.704C14.2939 36.776 15.7259 37.312 17.4539 37.312C18.4619 37.312 19.3339 37.088 20.0699 36.64C20.8059 36.176 21.4219 35.6 21.9179 34.912C22.4299 34.224 22.8459 33.528 23.1659 32.824C23.5019 32.104 23.7579 31.496 23.9339 31V23.416H18.8939V23.224ZM52.294 37.48L39.094 1.168H35.254V0.999997H75.358V1.168H62.23L72.118 28.792L82.486 1.168H77.518V0.999997H87.118V1.168H82.702L69.07 37.48H67.726L54.526 1.168H47.542L57.478 28.792L61.702 17.728L61.798 18.04L54.358 37.48H52.294ZM66.094 14.68L65.926 14.536L70.942 1.072H71.158L66.094 14.68Z" fill="white"/>
</svg>
